<svg width="360" height="516" viewBox="0 0 360 516" fill="none" xmlns="http://www.w3.org/2000/svg">
<path d="M175.86 0.606066C171.263 2.01526 166.912 5.8402 164.842 10.2691C159.754 21.14 164.596 34.9903 174.842 38.6944C177.789 39.7815 182.211 39.7815 185.158 38.6944C192.211 36.1176 197.193 28.347 197.193 19.8918C197.193 14.2551 195.579 9.78593 192.105 5.79994C187.86 0.928166 181.439 -1.12522 175.86 0.606066Z" fill="#384B70"/>
<path d="M176.008 1.0836L176.006 1.08411C171.548 2.45082 167.307 6.17683 165.295 10.4808L165.295 10.481C162.811 15.7884 162.748 21.8324 164.564 27.0037C166.38 32.1762 170.058 36.4331 175.012 38.2242L175.012 38.2242L175.015 38.2253C177.851 39.2712 182.149 39.2712 184.985 38.2253L184.986 38.2248C191.812 35.7311 196.693 28.171 196.693 19.8918C196.693 14.3672 195.117 10.0171 191.728 6.12843C187.595 1.3857 181.373 -0.581436 176.008 1.0836Z" stroke="black" stroke-opacity="0.84"/>
<path d="M116.14 1.7738C109.193 2.7401 104.211 4.47139 99.0526 7.61187C91.1228 12.4836 83.4737 18.2814 64.2105 34.1449C38.6667 55.1217 26.3158 63.7379 9.12281 72.5554C1.54386 76.4206 0 77.3869 0 78.1921C0 79.4805 1.68421 81.5339 3.7193 82.7418C6.87719 84.5939 10.8421 85.1576 16.4912 84.5536C23.8947 83.7081 27.2281 82.621 34.7719 78.5545C45.3333 72.8775 64 59.7921 75.4386 50.0889C79.7544 46.425 86.6316 38.6543 88.7018 35.1515C90.4912 32.0512 91.1228 31.3265 91.7193 31.6084C92.1053 31.7694 92.2105 32.9773 92.2105 36.923C92.2456 44.8145 93.6491 51.0149 96.7719 56.8932C98.6316 60.4363 103.509 65.912 106.456 67.8044C111.614 71.1059 115.404 72.1125 122.386 72.0722C126.982 72.0722 127.018 72.0722 127.018 72.9983C127.018 73.4814 126.561 74.4074 125.965 75.0516C123.93 77.3064 123.719 80.7287 125.404 85.077C129.263 95.1024 139.86 103.719 149.93 105.088C155.053 105.772 161.965 104.443 166.316 101.947L168.246 100.82L168.14 94.7803C167.93 80.2455 167.614 69.9786 167.368 69.8175C167.228 69.6967 165.86 69.9786 164.351 70.4215C155.825 72.9177 148.632 71.2267 144.105 65.5899C141.825 62.7716 140.456 59.6714 140.07 56.4503C139.614 52.4644 139.895 51.7396 143.825 47.3913C150.07 40.4661 152.246 36.0372 152.561 29.7563C152.667 27.3405 152.526 25.5287 152.14 23.7169C150.982 18.5633 147.789 12.081 144.702 8.69896C139.263 2.69983 128.351 0.0425058 116.14 1.7738Z" fill="#384B70"/>
<path d="M116.211 2.26884L116.209 2.26903C109.322 3.22704 104.406 4.93799 99.3135 8.03841C91.4171 12.8897 83.7923 18.6668 64.5284 34.5309L64.5279 34.5313C38.973 55.5171 26.5903 64.159 9.35098 73.0003L9.34997 73.0008C5.55596 74.9357 3.29485 76.134 1.98247 76.9464C1.32326 77.3544 0.934373 77.6467 0.713916 77.8681C0.499862 78.083 0.499978 78.175 0.5 78.1917L0.5 78.1921C0.5 78.6565 0.825921 79.377 1.48344 80.1805C2.12198 80.9608 3.00689 81.7373 3.97339 82.3112C7.00014 84.0859 10.8405 84.6547 16.4364 84.0566C20.1217 83.6357 22.7677 83.1574 25.4232 82.2868C28.0824 81.415 30.7708 80.1433 34.5347 78.1144L34.5352 78.1141C45.0587 72.4574 63.6965 59.3939 75.1152 49.7076C77.2477 47.8972 80.0282 45.058 82.5382 42.228C85.0523 39.3934 87.2605 36.6066 88.27 34.8993C89.1604 33.3567 89.7871 32.3606 90.2779 31.7867C90.5219 31.5013 90.7707 31.2731 91.0431 31.1509C91.3471 31.0145 91.648 31.0245 91.9239 31.1521C92.221 31.282 92.3592 31.5657 92.4344 31.7974C92.5162 32.0492 92.5694 32.3834 92.6076 32.8009C92.6845 33.6421 92.7105 34.9521 92.7105 36.9208C92.7453 44.7472 94.1356 50.8648 97.2135 56.6587L97.2147 56.6609C98.1177 58.3815 99.7724 60.6016 101.58 62.6357C103.39 64.6726 105.31 66.474 106.726 67.3833C109.276 69.0154 111.465 70.0662 113.866 70.7085C116.271 71.3517 118.915 71.5922 122.383 71.5722H122.386H122.393C123.536 71.5722 124.405 71.5722 125.06 71.5868C125.708 71.6012 126.183 71.6302 126.523 71.6975C126.856 71.7638 127.188 71.8911 127.373 72.2131C127.458 72.3604 127.49 72.5117 127.504 72.6369C127.518 72.7582 127.518 72.888 127.518 72.9983C127.518 73.36 127.36 73.7984 127.161 74.1904C126.954 74.5987 126.666 75.0294 126.334 75.3886C124.486 77.4382 124.215 80.6252 125.87 84.8964L125.87 84.8974C127.764 89.8162 131.319 94.4083 135.654 97.9409C139.989 101.474 145.071 103.922 149.996 104.592C155.013 105.262 161.812 103.954 166.065 101.515C166.066 101.514 166.066 101.514 166.067 101.513L167.741 100.536L167.64 94.789L167.64 94.7875C167.535 87.5216 167.404 81.3242 167.268 76.9242C167.2 74.7236 167.131 72.9758 167.064 71.7697C167.03 71.1656 166.997 70.7034 166.966 70.3901C166.963 70.363 166.961 70.3373 166.958 70.313C166.827 70.3311 166.664 70.3595 166.472 70.3982C165.941 70.5054 165.236 70.6827 164.492 70.9012L164.491 70.9013C155.829 73.4373 148.404 71.7401 143.717 65.9045C141.384 63.0218 139.972 59.835 139.574 56.5098L139.573 56.5072C139.346 54.5162 139.282 53.2203 139.84 51.8661C140.384 50.5473 141.504 49.2133 143.453 47.0564C146.563 43.6084 148.634 40.8092 149.969 38.1105C151.298 35.4229 151.907 32.8148 152.062 29.7345C152.166 27.3538 152.027 25.5858 151.652 23.8235C150.509 18.7404 147.352 12.3429 144.333 9.03608L144.331 9.03478C139.053 3.21291 128.346 0.548172 116.211 2.26884Z" stroke="black" stroke-opacity="0.84"/>
<path d="M230.351 1.61275C226.772 2.13616 221.93 3.82719 219.228 5.47795C215.193 7.97423 212.175 12.0005 209.614 18.2009C207.86 22.509 207.263 25.6898 207.439 29.7563C207.754 36.0372 209.93 40.4661 216.175 47.3913C220.105 51.7396 220.386 52.4644 219.93 56.4503C219.544 59.6714 218.175 62.7716 215.895 65.5899C211.368 71.2267 204.175 72.9177 195.649 70.4215C194.14 69.9786 192.772 69.6967 192.632 69.8175C192.386 69.9786 192.07 80.2455 191.86 94.7803L191.754 100.82L193.684 101.947C198.035 104.443 204.947 105.772 210.07 105.088C220.14 103.719 230.737 95.1024 234.597 85.077C236.281 80.7287 236.07 77.3064 234.035 75.0516C233.439 74.4074 232.982 73.4814 232.982 72.9983C232.982 72.0722 233.018 72.0722 237.649 72.0722C244.597 72.1125 248.386 71.1059 253.544 67.8044C256.491 65.912 261.368 60.4363 263.228 56.8932C266.351 51.0149 267.754 44.8145 267.789 36.923C267.789 30.0784 268.211 29.8771 271.298 35.1515C273.368 38.6543 280.246 46.425 284.561 50.0889C296 59.7921 314.667 72.8775 325.228 78.5545C332.772 82.621 336.105 83.7081 343.509 84.5536C349.158 85.1576 353.123 84.5939 356.281 82.7418C358.316 81.5339 360 79.4805 360 78.1921C360 77.3869 358.456 76.4206 350.877 72.5554C333.684 63.7379 321.333 55.1217 295.789 34.1449C280.351 21.4219 275.93 17.9593 269.404 13.3291C263.053 8.77948 258.316 5.88058 255.579 4.79349C248.246 1.85432 237.86 0.565919 230.351 1.61275Z" fill="#384B70"/>
<path d="M220.426 56.5098L220.427 56.5072C220.654 54.5162 220.718 53.2203 220.16 51.8661C219.616 50.5473 218.496 49.2131 216.546 47.056C213.437 43.6082 211.366 40.8091 210.032 38.1105C208.702 35.4224 208.093 32.8139 207.938 29.7329C207.766 25.7488 208.346 22.6402 210.077 18.3908C212.614 12.2479 215.576 8.32571 219.489 5.90423C222.127 4.29309 226.902 2.6228 230.422 2.10771C237.842 1.07368 248.139 2.35017 255.393 5.2576L255.394 5.25817C258.068 6.32008 262.76 9.18481 269.112 13.7356L269.114 13.7369C275.624 18.3558 280.033 21.8082 295.472 34.5307L295.472 34.5313C321.027 55.5171 333.41 64.159 350.649 73.0003L350.65 73.0008C354.444 74.9357 356.705 76.134 358.018 76.9464C358.677 77.3544 359.066 77.6467 359.286 77.8681C359.502 78.085 359.5 78.1767 359.5 78.1921C359.5 78.6565 359.174 79.377 358.517 80.1805C357.878 80.9607 356.993 81.7372 356.027 82.311C353 84.0859 349.16 84.6547 343.564 84.0566C339.878 83.6357 337.232 83.1574 334.577 82.2868C331.918 81.415 329.229 80.1433 325.465 78.1144L325.465 78.1141C314.941 72.4574 296.304 59.3939 284.885 49.7076C282.752 47.8972 279.972 45.058 277.462 42.228C274.947 39.3929 272.739 36.6057 271.73 34.8984C271.729 34.898 271.729 34.8975 271.729 34.8971L271.298 35.1515C268.211 29.8771 267.789 30.0784 267.789 36.923L220.426 56.5098ZM220.426 56.5098C220.028 59.8348 218.616 63.0214 216.284 65.904C211.597 71.74 204.171 73.4374 195.509 70.9013L195.508 70.9012C194.764 70.6827 194.059 70.5054 193.528 70.3982C193.337 70.3595 193.173 70.3311 193.042 70.313C193.039 70.3373 193.037 70.363 193.034 70.3901C193.003 70.7034 192.97 71.1656 192.936 71.7697C192.869 72.9758 192.8 74.7236 192.732 76.9242C192.596 81.3242 192.465 87.5216 192.36 94.7875L192.36 94.789L192.259 100.536L193.935 101.514C198.187 103.954 204.987 105.262 210.003 104.592C214.929 103.922 220.011 101.474 224.346 97.9409C228.681 94.4083 232.236 89.8162 234.13 84.8974L234.13 84.8964C235.785 80.6253 235.514 77.4384 233.666 75.3888C233.334 75.0296 233.046 74.5987 232.839 74.1904C232.64 73.7984 232.482 73.36 232.482 72.9983V72.9981C232.482 72.8879 232.482 72.7579 232.496 72.6365C232.51 72.511 232.542 72.3593 232.628 72.2117C232.815 71.89 233.147 71.7634 233.482 71.6974C233.824 71.6302 234.302 71.6012 234.955 71.5868C235.615 71.5722 236.49 71.5722 237.642 71.5722L237.649 71.5722L237.652 71.5722C241.103 71.5922 243.738 71.3517 246.138 70.7085C248.535 70.0663 250.724 69.0155 253.274 67.3836C254.69 66.4744 256.61 64.6729 258.42 62.6357C260.228 60.6016 261.882 58.3815 262.785 56.6609L262.787 56.6587C265.864 50.8652 267.255 44.7481 267.289 36.9225L220.426 56.5098Z" stroke="black" stroke-opacity="0.84"/>
<mask id="path-7-inside-1_4_3" fill="white">
<path d="M168.667 42.9221C168.561 43.1234 168.632 49.4849 168.807 57.1348C168.947 64.7847 169.263 78.796 169.474 88.3382C169.684 97.8402 170 112.617 170.175 121.152C170.351 129.688 170.667 145.149 170.877 155.577C171.088 165.964 171.263 175.466 171.333 176.634C171.368 177.963 171.263 178.728 171.018 178.728C170.175 178.728 162.14 175.708 158.456 174.017C148.912 169.628 142.772 164.515 138.912 157.831C136.316 153.322 135.368 149.578 135.158 142.773C134.982 135.929 135.123 135.566 137.474 138.103C138.386 139.109 139.544 140.237 140.035 140.599C143.544 143.055 149.789 143.659 153.754 141.928C159.754 139.311 164.702 134.358 165.158 130.493C165.298 129.164 165.193 128.722 164.211 127.473C161.754 124.252 157.018 122.602 150.175 122.602C140.597 122.602 134.632 125.138 128.842 131.701C123.649 137.579 121.018 144.585 121.018 152.557C121.053 161.737 124.597 170.353 131.684 178.526C136.702 184.284 141.684 188.431 149.754 193.625L152.667 195.517L149.579 198.094C145.825 201.234 140.737 206.952 138.491 210.656C130.702 223.258 129.509 237.712 134.947 252.529C138.597 262.434 144.982 270.486 156.281 279.344L159.333 281.719L156.526 283.974C145.895 292.51 140.175 300.884 138 311.071C137.193 314.976 137.193 322.868 138.035 327.498C140.456 340.865 146.702 352.783 156.14 362.124L159.298 365.264L157.439 367.519C151.368 374.887 148.421 382.899 148.421 392.119C148.421 405.003 152.842 412.854 167.228 425.416L168.246 426.302L165.368 429.362C158.386 436.77 155.439 443.494 155.439 451.949C155.439 458.11 157.018 463.666 160.316 469.141C162.597 472.926 164.105 474.617 164.386 473.772C164.526 473.409 164.211 470.39 163.719 467.008C162.667 460.002 162.597 456.861 163.333 453.6C164.14 449.976 165.439 447.48 168.246 444.098C170.737 441.119 176.316 436.086 176.702 436.529C176.877 436.73 177.228 449.936 177.895 484.522C178.14 495.594 178.421 506.988 178.526 509.887L178.772 515.121H180H181.228L181.474 510.29C181.579 507.632 181.86 496.319 182.105 485.126C182.772 451.345 183.123 436.73 183.298 436.529C183.719 436.046 188.07 439.911 191.509 443.776C193.474 445.99 194.421 447.48 195.544 450.057L197.018 453.439V458.311C197.018 461.733 196.772 464.672 196.175 468.135C195.719 470.832 195.474 473.329 195.579 473.731C195.789 474.295 195.965 474.215 196.842 473.248C198.351 471.557 201.298 466.605 202.316 463.948C204.105 459.277 204.667 455.976 204.491 450.903C204.175 442.447 201.509 436.609 194.772 429.604C193.193 427.993 191.93 426.544 191.93 426.383C191.93 426.181 193.298 424.853 195.018 423.403C206.877 413.136 211.579 404.319 211.614 392.119C211.614 383.02 208.632 374.887 202.561 367.519L200.702 365.264L204.175 361.801C213.404 352.541 219.333 341.227 222 327.659C222.912 323.149 222.807 314.372 221.789 310.185C219.509 300.441 214.07 292.59 204 284.417L200.702 281.719L203.719 279.344C209.544 274.754 215.509 268.916 218.456 264.89C222.702 259.051 226.246 250.838 227.614 243.55C228.526 238.598 228.456 229.217 227.439 224.949C225.018 214.682 218.982 205.14 210.421 198.094L207.333 195.517L211.158 193.061C229.825 180.902 239.018 167.374 238.982 152.195C238.947 138.626 229.93 126.346 217.86 123.326C214.105 122.4 205.789 122.4 202.807 123.286C199.614 124.252 197.088 125.782 195.789 127.473C194.842 128.722 194.702 129.164 194.842 130.453C195.298 134.318 200.491 139.512 206.421 142.048C209.193 143.216 213.895 143.216 216.877 142.089C219.544 141.042 220.421 140.398 222.526 138.143C223.404 137.177 224.316 136.492 224.526 136.613C225.228 137.136 225.018 145.954 224.211 149.578C222.316 158.234 217.193 164.958 208.421 170.393C203.895 173.171 195.158 176.996 189.158 178.768C188.807 178.889 188.702 178.124 188.737 174.903C188.807 169.95 190.526 88.0564 191.228 57.3763C191.404 49.6057 191.474 43.1234 191.368 42.9624C191.158 42.5597 168.877 42.5195 168.667 42.9221ZM172.597 236.182C172.807 248.785 173.088 260.018 173.158 261.226C173.333 263.078 173.263 263.319 172.772 263.118C171.088 262.393 167.825 259.454 164.737 255.871C159.404 249.711 157.193 244.235 157.193 237.31C157.193 231.109 158.982 226.318 163.298 221.124C165.509 218.427 171.053 213.474 171.965 213.394C172.07 213.353 172.351 223.62 172.597 236.182ZM191.018 215.528C195.965 219.312 200.14 224.828 201.789 229.74C202.842 232.961 203.088 239.162 202.316 242.705C201.123 248.1 198.175 253.254 193.719 257.763C191.474 260.058 187.509 263.279 186.947 263.279C186.772 263.279 186.737 262.595 186.842 261.749C186.912 260.944 187.193 249.711 187.404 236.786C187.649 223.902 187.895 213.353 188 213.353C188.105 213.353 189.439 214.32 191.018 215.528ZM174.667 330.316C174.842 338.047 174.912 344.489 174.877 344.569C174.702 344.851 170.351 341.066 168.807 339.335C164.842 334.745 162.456 328.545 162.456 322.666C162.456 315.942 164.807 311.03 170.947 304.87L173.86 301.971L174.105 309.098C174.246 313.003 174.491 322.545 174.667 330.316ZM192.035 308.132C193.719 310.104 194.842 311.956 195.86 314.292C197.158 317.271 197.333 318.076 197.474 321.136C197.789 327.86 195.544 334.302 191.193 339.335C189.684 341.066 185.298 344.851 185.158 344.569C185.088 344.489 185.263 336.154 185.474 326.089C185.719 316.023 185.93 306.44 185.93 304.83L185.965 301.851L187.825 303.582C188.807 304.548 190.737 306.602 192.035 308.132ZM176.07 397.675C176.211 403.473 176.246 408.224 176.14 408.224C175.649 408.184 172.07 402.426 171.123 400.172C170.246 397.998 170.035 397.031 170.035 394.535C170 390.75 170.947 388.415 173.684 385.275L175.614 383.06L175.719 385.073C175.754 386.16 175.93 391.837 176.07 397.675ZM186.982 385.919C189.263 388.898 190 391.032 190 394.535C190 398.601 188.947 401.219 185.088 406.734C184.526 407.54 183.965 408.224 183.86 408.224C183.754 408.224 183.789 404.48 183.895 399.89C184.035 395.26 184.14 389.663 184.175 387.368C184.211 383.422 184.246 383.261 184.877 383.624C185.228 383.865 186.175 384.872 186.982 385.919Z"/>
</mask>
<path d="M168.667 42.9221C168.561 43.1234 168.632 49.4849 168.807 57.1348C168.947 64.7847 169.263 78.796 169.474 88.3382C169.684 97.8402 170 112.617 170.175 121.152C170.351 129.688 170.667 145.149 170.877 155.577C171.088 165.964 171.263 175.466 171.333 176.634C171.368 177.963 171.263 178.728 171.018 178.728C170.175 178.728 162.14 175.708 158.456 174.017C148.912 169.628 142.772 164.515 138.912 157.831C136.316 153.322 135.368 149.578 135.158 142.773C134.982 135.929 135.123 135.566 137.474 138.103C138.386 139.109 139.544 140.237 140.035 140.599C143.544 143.055 149.789 143.659 153.754 141.928C159.754 139.311 164.702 134.358 165.158 130.493C165.298 129.164 165.193 128.722 164.211 127.473C161.754 124.252 157.018 122.602 150.175 122.602C140.597 122.602 134.632 125.138 128.842 131.701C123.649 137.579 121.018 144.585 121.018 152.557C121.053 161.737 124.597 170.353 131.684 178.526C136.702 184.284 141.684 188.431 149.754 193.625L152.667 195.517L149.579 198.094C145.825 201.234 140.737 206.952 138.491 210.656C130.702 223.258 129.509 237.712 134.947 252.529C138.597 262.434 144.982 270.486 156.281 279.344L159.333 281.719L156.526 283.974C145.895 292.51 140.175 300.884 138 311.071C137.193 314.976 137.193 322.868 138.035 327.498C140.456 340.865 146.702 352.783 156.14 362.124L159.298 365.264L157.439 367.519C151.368 374.887 148.421 382.899 148.421 392.119C148.421 405.003 152.842 412.854 167.228 425.416L168.246 426.302L165.368 429.362C158.386 436.77 155.439 443.494 155.439 451.949C155.439 458.11 157.018 463.666 160.316 469.141C162.597 472.926 164.105 474.617 164.386 473.772C164.526 473.409 164.211 470.39 163.719 467.008C162.667 460.002 162.597 456.861 163.333 453.6C164.14 449.976 165.439 447.48 168.246 444.098C170.737 441.119 176.316 436.086 176.702 436.529C176.877 436.73 177.228 449.936 177.895 484.522C178.14 495.594 178.421 506.988 178.526 509.887L178.772 515.121H180H181.228L181.474 510.29C181.579 507.632 181.86 496.319 182.105 485.126C182.772 451.345 183.123 436.73 183.298 436.529C183.719 436.046 188.07 439.911 191.509 443.776C193.474 445.99 194.421 447.48 195.544 450.057L197.018 453.439V458.311C197.018 461.733 196.772 464.672 196.175 468.135C195.719 470.832 195.474 473.329 195.579 473.731C195.789 474.295 195.965 474.215 196.842 473.248C198.351 471.557 201.298 466.605 202.316 463.948C204.105 459.277 204.667 455.976 204.491 450.903C204.175 442.447 201.509 436.609 194.772 429.604C193.193 427.993 191.93 426.544 191.93 426.383C191.93 426.181 193.298 424.853 195.018 423.403C206.877 413.136 211.579 404.319 211.614 392.119C211.614 383.02 208.632 374.887 202.561 367.519L200.702 365.264L204.175 361.801C213.404 352.541 219.333 341.227 222 327.659C222.912 323.149 222.807 314.372 221.789 310.185C219.509 300.441 214.07 292.59 204 284.417L200.702 281.719L203.719 279.344C209.544 274.754 215.509 268.916 218.456 264.89C222.702 259.051 226.246 250.838 227.614 243.55C228.526 238.598 228.456 229.217 227.439 224.949C225.018 214.682 218.982 205.14 210.421 198.094L207.333 195.517L211.158 193.061C229.825 180.902 239.018 167.374 238.982 152.195C238.947 138.626 229.93 126.346 217.86 123.326C214.105 122.4 205.789 122.4 202.807 123.286C199.614 124.252 197.088 125.782 195.789 127.473C194.842 128.722 194.702 129.164 194.842 130.453C195.298 134.318 200.491 139.512 206.421 142.048C209.193 143.216 213.895 143.216 216.877 142.089C219.544 141.042 220.421 140.398 222.526 138.143C223.404 137.177 224.316 136.492 224.526 136.613C225.228 137.136 225.018 145.954 224.211 149.578C222.316 158.234 217.193 164.958 208.421 170.393C203.895 173.171 195.158 176.996 189.158 178.768C188.807 178.889 188.702 178.124 188.737 174.903C188.807 169.95 190.526 88.0564 191.228 57.3763C191.404 49.6057 191.474 43.1234 191.368 42.9624C191.158 42.5597 168.877 42.5195 168.667 42.9221ZM172.597 236.182C172.807 248.785 173.088 260.018 173.158 261.226C173.333 263.078 173.263 263.319 172.772 263.118C171.088 262.393 167.825 259.454 164.737 255.871C159.404 249.711 157.193 244.235 157.193 237.31C157.193 231.109 158.982 226.318 163.298 221.124C165.509 218.427 171.053 213.474 171.965 213.394C172.07 213.353 172.351 223.62 172.597 236.182ZM191.018 215.528C195.965 219.312 200.14 224.828 201.789 229.74C202.842 232.961 203.088 239.162 202.316 242.705C201.123 248.1 198.175 253.254 193.719 257.763C191.474 260.058 187.509 263.279 186.947 263.279C186.772 263.279 186.737 262.595 186.842 261.749C186.912 260.944 187.193 249.711 187.404 236.786C187.649 223.902 187.895 213.353 188 213.353C188.105 213.353 189.439 214.32 191.018 215.528ZM174.667 330.316C174.842 338.047 174.912 344.489 174.877 344.569C174.702 344.851 170.351 341.066 168.807 339.335C164.842 334.745 162.456 328.545 162.456 322.666C162.456 315.942 164.807 311.03 170.947 304.87L173.86 301.971L174.105 309.098C174.246 313.003 174.491 322.545 174.667 330.316ZM192.035 308.132C193.719 310.104 194.842 311.956 195.86 314.292C197.158 317.271 197.333 318.076 197.474 321.136C197.789 327.86 195.544 334.302 191.193 339.335C189.684 341.066 185.298 344.851 185.158 344.569C185.088 344.489 185.263 336.154 185.474 326.089C185.719 316.023 185.93 306.44 185.93 304.83L185.965 301.851L187.825 303.582C188.807 304.548 190.737 306.602 192.035 308.132ZM176.07 397.675C176.211 403.473 176.246 408.224 176.14 408.224C175.649 408.184 172.07 402.426 171.123 400.172C170.246 397.998 170.035 397.031 170.035 394.535C170 390.75 170.947 388.415 173.684 385.275L175.614 383.06L175.719 385.073C175.754 386.16 175.93 391.837 176.07 397.675ZM186.982 385.919C189.263 388.898 190 391.032 190 394.535C190 398.601 188.947 401.219 185.088 406.734C184.526 407.54 183.965 408.224 183.86 408.224C183.754 408.224 183.789 404.48 183.895 399.89C184.035 395.26 184.14 389.663 184.175 387.368C184.211 383.422 184.246 383.261 184.877 383.624C185.228 383.865 186.175 384.872 186.982 385.919Z" fill="#384B70" stroke="black" stroke-opacity="0.84" stroke-width="2" mask="url(#path-7-inside-1_4_3)"/>
<path d="M85.3684 45.3378C84.7719 45.7404 82.2456 48.0757 79.7544 50.572C62.2105 68.1264 48.0702 79.1986 34.421 86.0835C29.7193 88.4993 28.9123 89.3851 29.8596 91.2774C30.6316 92.9282 32.4561 93.7334 36.5965 94.2166C45.3684 95.2231 51.4737 93.049 63.8596 84.6341C75.4035 76.7426 90.7018 63.4962 92.0702 60.1544C92.6667 58.7453 92.6667 58.705 91.2982 55.2021C90.0702 52.1422 89.4737 50.1291 88.4211 45.8612C88.1404 44.5728 86.8772 44.3715 85.3684 45.3378Z" fill="#384B70"/>
<path d="M80.1083 50.9252L80.108 50.9254C62.5476 68.4965 48.3642 79.61 34.6479 86.5291C33.4766 87.131 32.5603 87.6313 31.857 88.0718C31.1492 88.5153 30.6848 88.8814 30.3967 89.2077C30.1179 89.5234 30.0212 89.7817 30.0111 90.0278C30.0003 90.2915 30.0856 90.6118 30.3067 91.0536L30.3069 91.0535L30.3126 91.0656C30.9559 92.4414 32.4956 93.2346 36.654 93.7199C40.9754 94.2157 44.617 93.9277 48.7066 92.4868C52.8145 91.0395 57.3937 88.4225 63.5782 84.2208C69.3311 80.288 76.0261 75.0161 81.4531 70.3104C84.1667 67.9575 86.5575 65.7511 88.3521 63.9286C89.2497 63.0171 89.9932 62.2065 90.5519 61.5251C91.1197 60.8326 91.4667 60.3088 91.6075 59.965L91.6074 59.965L91.6097 59.9595C91.9092 59.2521 91.9995 59.0093 91.9269 58.5398C91.8412 57.9852 91.5289 57.1667 90.8334 55.3864C89.5939 52.2977 88.991 50.2599 87.9356 45.981L87.9354 45.981L87.9325 45.9677C87.8784 45.7192 87.7844 45.5556 87.6809 45.4502C87.5796 45.3469 87.4471 45.2764 87.2725 45.2471C86.9067 45.1857 86.3439 45.3081 85.6435 45.7554C85.3807 45.9346 84.635 46.5851 83.6124 47.5359C82.5996 48.4777 81.3497 49.6812 80.1083 50.9252Z" stroke="black" stroke-opacity="0.84"/>
<path d="M271.579 45.7002C271.368 46.2639 271.228 46.9483 271.228 47.2302C271.228 48.0757 269.965 52.0617 268.597 55.5242C267.333 58.705 267.333 58.7453 267.93 60.1544C269.298 63.4962 284.597 76.7426 296.14 84.6341C308.526 93.049 314.632 95.2231 323.404 94.2166C327.544 93.7334 329.368 92.9282 330.14 91.2774C331.088 89.3851 330.281 88.4993 325.579 86.0835C311.544 78.9973 297.825 68.1264 278.105 48.5186C274 44.4118 272.246 43.6468 271.579 45.7002Z" fill="#384B70"/>
<path d="M272.055 45.8546L272.051 45.8649L272.047 45.8751C271.952 46.1315 271.87 46.4207 271.813 46.6791C271.753 46.9477 271.728 47.1458 271.728 47.2302C271.728 47.5146 271.631 47.9827 271.494 48.5198C271.351 49.0788 271.147 49.7743 270.902 50.547C270.412 52.093 269.75 53.966 269.062 55.708L269.061 55.7088C268.417 57.3312 268.133 58.0651 268.061 58.5743C268 59.0037 268.088 59.2457 268.39 59.9595L268.39 59.9595L268.393 59.965C268.533 60.3088 268.88 60.8326 269.448 61.5251C270.007 62.2065 270.75 63.0171 271.648 63.9286C273.443 65.7511 275.833 67.9575 278.547 70.3104C283.974 75.0161 290.669 80.288 296.422 84.2208C302.606 88.4225 307.186 91.0395 311.293 92.4868C315.383 93.9277 319.025 94.2157 323.346 93.7199C327.504 93.2346 329.044 92.4414 329.687 91.0656L329.687 91.0655L329.693 91.0536C329.914 90.6118 330 90.2915 329.989 90.0278C329.979 89.7817 329.882 89.5234 329.603 89.2077C329.315 88.8814 328.851 88.5153 328.143 88.0718C327.44 87.6312 326.523 87.1309 325.352 86.5291C311.247 79.4075 297.484 68.4932 277.753 48.8731L277.752 48.8721C275.69 46.8099 274.289 45.6625 273.354 45.2582C272.896 45.06 272.652 45.0847 272.517 45.1485C272.377 45.2149 272.204 45.3949 272.055 45.8546Z" stroke="black" stroke-opacity="0.84"/>
<path d="M93.3333 63.8586C93.0526 64.0197 90.4561 66.7173 87.5439 69.9383C77.4386 81.1715 70.3509 87.2914 58.4912 95.1426L54.3509 97.9207L54.4561 99.3299C54.5614 100.659 54.7018 100.82 56.1403 101.343C58.3158 102.108 65.2281 102.189 68.0702 101.464C73.4386 100.135 79.4035 96.5921 86.386 90.6735C91.6491 86.2043 102.982 75.2932 103.544 74.1658C104.211 72.7164 103.509 71.589 100.912 69.8175C99.614 68.972 97.7193 67.2004 96.6667 65.912C94.807 63.617 94.4211 63.4157 93.3333 63.8586Z" fill="#384B70"/>
<path d="M67.9466 100.979L67.9466 100.979L67.9501 100.978C73.2086 99.677 79.1032 96.1911 86.0623 90.2923C88.6819 88.0679 92.8222 84.2314 96.3814 80.8062C98.1601 79.0945 99.7899 77.489 101.009 76.2427C101.619 75.6191 102.123 75.0885 102.49 74.6808C102.674 74.4767 102.82 74.3071 102.927 74.1742C102.981 74.1078 103.022 74.0536 103.052 74.011C103.067 73.9899 103.078 73.9732 103.086 73.9606C103.09 73.9537 103.093 73.9489 103.095 73.946C103.233 73.6413 103.288 73.3807 103.279 73.1427C103.27 72.9041 103.196 72.654 103.025 72.3724C102.668 71.7872 101.925 71.114 100.635 70.2334C99.2856 69.3535 97.3569 67.5471 96.2795 66.2283L96.2782 66.2268C95.8144 65.6545 95.4513 65.2237 95.15 64.9032C94.846 64.5799 94.626 64.3921 94.4513 64.2862C94.2903 64.1886 94.1769 64.1658 94.0688 64.1696C93.951 64.1737 93.804 64.2104 93.5772 64.2995C93.5597 64.3144 93.5232 64.3455 93.4623 64.4016C93.3653 64.4911 93.2343 64.6174 93.072 64.7785C92.7481 65.0999 92.3096 65.5493 91.787 66.0964C90.7423 67.1898 89.3682 68.666 87.9149 70.2735C77.7833 81.5359 70.6639 87.6838 58.7685 95.5587L54.8712 98.1737L54.9546 99.2904C54.9546 99.2908 54.9546 99.2912 54.9547 99.2915C55.0095 99.9831 55.0723 100.187 55.1812 100.317C55.2353 100.382 55.3259 100.455 55.5102 100.548C55.6975 100.643 55.9499 100.742 56.3087 100.872C56.7952 101.043 57.5859 101.186 58.5742 101.289C59.554 101.391 60.695 101.45 61.8606 101.462C64.2065 101.487 66.5913 101.325 67.9466 100.979Z" stroke="black" stroke-opacity="0.84"/>
<path d="M263.368 65.8717C262.281 67.2004 260.386 68.9719 259.088 69.8175C256.491 71.589 255.789 72.7164 256.456 74.1658C257.018 75.2932 268.351 86.2043 273.614 90.6735C280.596 96.5921 286.561 100.135 291.93 101.464C294.772 102.189 301.684 102.108 303.86 101.343C305.298 100.82 305.439 100.659 305.544 99.3299L305.649 97.9207L301.509 95.1426C289.544 87.2109 282.526 81.1312 272.421 69.898C269.509 66.6367 266.737 63.8989 266.211 63.7781C265.439 63.5365 265.053 63.8183 263.368 65.8717Z" fill="#384B70"/>
<path d="M292.05 100.978L292.053 100.979C293.409 101.325 295.794 101.487 298.139 101.462C299.305 101.45 300.446 101.391 301.426 101.289C302.414 101.186 303.205 101.043 303.691 100.872C304.05 100.742 304.303 100.643 304.49 100.548C304.674 100.455 304.765 100.382 304.819 100.317C304.928 100.187 304.991 99.9831 305.045 99.2913C305.045 99.291 305.045 99.2907 305.045 99.2904L305.129 98.1737L301.233 95.5594C301.232 95.5591 301.232 95.5589 301.231 95.5586C289.23 87.6029 282.181 81.4952 272.049 70.2324L272.048 70.231C270.597 68.6064 269.184 67.1146 268.07 66.0164C267.512 65.4666 267.035 65.0203 266.668 64.7066C266.484 64.5492 266.335 64.4309 266.221 64.3509C266.123 64.2814 266.081 64.2628 266.081 64.2615L266.08 64.2611L266.061 64.2553C265.904 64.2061 265.816 64.1998 265.749 64.2095C265.683 64.2189 265.586 64.2509 265.428 64.367C265.085 64.6191 264.609 65.1474 263.755 66.1885C262.643 67.5466 260.715 69.3532 259.365 70.2334C258.075 71.114 257.332 71.7872 256.975 72.3724C256.804 72.654 256.73 72.9041 256.721 73.1427C256.712 73.3808 256.767 73.6413 256.905 73.9462C256.907 73.949 256.91 73.9538 256.914 73.9606C256.922 73.9732 256.933 73.9899 256.948 74.011C256.978 74.0536 257.019 74.1078 257.073 74.1742C257.18 74.3071 257.326 74.4767 257.51 74.6808C257.877 75.0885 258.381 75.6191 258.991 76.2427C260.21 77.489 261.84 79.0945 263.619 80.8062C267.178 84.2314 271.318 88.0679 273.938 90.2923C280.897 96.1911 286.791 99.677 292.05 100.978Z" stroke="black" stroke-opacity="0.84"/>
<path d="M106.702 74.6087C106.246 74.8906 105.404 75.8569 104.842 76.7024C101.368 82.017 94.5965 89.828 86.2105 98.1623C82.0351 102.309 81.5439 103.034 82.1053 104.242C82.9825 106.175 86.5965 107.02 90.4211 106.255C100.526 104.242 119.298 85.9628 119.298 78.0713C119.298 77.4271 119.193 76.8232 119.053 76.7426C118.877 76.6218 117.193 76.34 115.263 76.0582C113.368 75.8166 110.842 75.2529 109.649 74.81C108.491 74.4074 107.544 74.045 107.544 74.045C107.544 74.0853 107.158 74.3269 106.702 74.6087Z" fill="#384B70"/>
<path d="M86.5629 98.5171L86.563 98.517C94.956 90.1756 101.757 82.3361 105.26 76.9774M86.5629 98.5171L104.842 76.7024M86.5629 98.5171C84.4619 100.604 83.3369 101.783 82.7959 102.584C82.5309 102.976 82.44 103.231 82.4199 103.419C82.4009 103.596 82.4386 103.773 82.5587 104.031L82.5587 104.031L82.5606 104.035C82.9046 104.793 83.8417 105.431 85.2744 105.774C86.6845 106.112 88.47 106.135 90.323 105.765L90.3234 105.765C92.7546 105.28 95.758 103.803 98.919 101.696C102.07 99.5953 105.341 96.8954 108.3 94.0096C111.26 91.123 113.898 88.0616 115.792 85.2423C117.702 82.399 118.798 79.8845 118.798 78.0713C118.798 77.773 118.774 77.4915 118.736 77.2849C118.726 77.2311 118.716 77.1863 118.707 77.1503M86.5629 98.5171L109.48 75.2806M105.26 76.9774C105.26 76.9769 105.26 76.9764 105.261 76.9759L104.842 76.7024M105.26 76.9774C105.259 76.9779 105.259 76.9784 105.259 76.9789L104.842 76.7024M105.26 76.9774C105.527 76.5754 105.863 76.1412 106.186 75.7751C106.521 75.3955 106.804 75.133 106.965 75.0341C107.192 74.8938 107.408 74.7594 107.568 74.6544C107.59 74.6403 107.611 74.6263 107.631 74.6125M104.842 76.7024C105.404 75.8569 106.246 74.8906 106.702 74.6087C107.135 74.3411 107.505 74.1098 107.541 74.0527L107.365 74.5121L107.365 74.5121L107.365 74.5121L107.366 74.5124L107.368 74.5132L107.377 74.5164L107.409 74.5288L107.534 74.5759C107.563 74.5868 107.595 74.5991 107.631 74.6125M107.631 74.6125C107.728 74.6488 107.849 74.6938 107.989 74.7456C108.372 74.8869 108.899 75.0786 109.48 75.2806M107.631 74.6125C107.686 74.5758 107.736 74.5408 107.778 74.5094C107.805 74.4891 107.84 74.4612 107.873 74.4296C107.889 74.4147 107.916 74.3867 107.944 74.3485L107.945 74.3469C107.954 74.3345 107.987 74.2899 108.012 74.221C108.399 74.3647 108.99 74.5808 109.649 74.81C110.842 75.2529 113.368 75.8166 115.263 76.0582M109.48 75.2806L82.1053 104.242C82.9825 106.175 86.5965 107.02 90.4211 106.255C100.526 104.242 119.298 85.9628 119.298 78.0713C119.298 77.4271 119.193 76.8232 119.053 76.7426C118.877 76.6218 117.193 76.34 115.263 76.0582M109.48 75.2806C110.722 75.7408 113.282 76.3092 115.195 76.5536M109.48 75.2806C109.478 75.28 109.477 75.2794 109.475 75.2788L109.649 74.81L109.485 75.2823C109.483 75.2817 109.482 75.2812 109.48 75.2806ZM115.263 76.0582L115.2 76.5542C115.198 76.554 115.197 76.5538 115.195 76.5536M115.263 76.0582L115.191 76.5529C115.192 76.5531 115.194 76.5534 115.195 76.5536M115.195 76.5536C116.157 76.694 117.053 76.8338 117.729 76.9532C118.068 77.0131 118.347 77.0669 118.548 77.1122C118.611 77.1263 118.664 77.139 118.707 77.1503M118.707 77.1503C118.698 77.1161 118.69 77.0898 118.683 77.071C118.679 77.0608 118.677 77.0563 118.677 77.0563C118.677 77.0563 118.678 77.0598 118.682 77.066C118.686 77.0723 118.713 77.1135 118.769 77.1542C118.774 77.1576 118.779 77.1611 118.784 77.1645C118.792 77.1691 118.799 77.1729 118.804 77.1758C118.815 77.1814 118.821 77.1841 118.821 77.1843C118.822 77.1844 118.809 77.1791 118.776 77.1693C118.757 77.1636 118.734 77.1572 118.707 77.1503Z" stroke="black" stroke-opacity="0.84"/>
<path d="M250.14 74.8503C249.053 75.2529 246.596 75.8166 244.702 76.0582C242.807 76.34 241.123 76.6218 240.982 76.7426C240.807 76.8232 240.702 77.4271 240.702 78.0713C240.702 85.9628 259.474 104.242 269.579 106.255C273.403 107.02 277.018 106.175 277.895 104.242C278.456 103.034 277.965 102.309 273.789 98.1623C265.333 89.7877 258.456 81.8157 255.088 76.6218C254.281 75.3334 252.561 73.8437 252.175 74.0853C252.14 74.1256 251.228 74.4477 250.14 74.8503Z" fill="#384B70"/>
<path d="M241.301 77.1535C241.29 77.1881 241.278 77.2344 241.267 77.2935C241.226 77.4944 241.202 77.7722 241.202 78.0713C241.202 79.8845 242.298 82.399 244.208 85.2423C246.102 88.0616 248.74 91.123 251.7 94.0096C254.659 96.8954 257.93 99.5953 261.081 101.696C264.242 103.803 267.245 105.28 269.677 105.765L269.677 105.765C271.53 106.135 273.315 106.112 274.726 105.774C276.158 105.431 277.095 104.793 277.439 104.035L277.441 104.031C277.561 103.773 277.599 103.596 277.58 103.419C277.56 103.231 277.469 102.976 277.204 102.584C276.663 101.783 275.538 100.604 273.437 98.5174C264.973 90.1346 258.066 82.1329 254.668 76.8939L254.668 76.8939L254.664 76.8873C254.292 76.2942 253.697 75.6362 253.146 75.1572C252.87 74.9174 252.623 74.7385 252.438 74.6363C252.385 74.6069 252.343 74.5876 252.313 74.5755C252.275 74.5921 252.229 74.6109 252.178 74.6307C252.066 74.6749 251.91 74.733 251.726 74.801C251.571 74.8579 251.398 74.9212 251.21 74.9901C250.939 75.0891 250.637 75.1997 250.314 75.3192C249.18 75.7389 246.688 76.3086 244.77 76.5535C243.826 76.6939 242.939 76.8337 242.272 76.953C241.937 77.0129 241.664 77.0665 241.469 77.1116C241.399 77.1276 241.344 77.1416 241.301 77.1535ZM241.331 77.0784C241.331 77.078 241.329 77.0813 241.325 77.0894C241.329 77.0828 241.331 77.0788 241.331 77.0784ZM252.255 74.5572C252.255 74.5574 252.258 74.5578 252.262 74.5583C252.257 74.5573 252.255 74.5571 252.255 74.5572Z" stroke="black" stroke-opacity="0.84"/>
</svg>
