<svg width="55" height="57" viewBox="0 0 55 57" fill="none" xmlns="http://www.w3.org/2000/svg">
<g filter="url(#filter0_d_1_26)">
<rect x="1" width="48" height="48" rx="15" fill="#031A7A"/>
</g>
<path d="M10.125 11.25C10.125 10.6864 10.3489 10.1459 10.7474 9.7474C11.1459 9.34888 11.6864 9.125 12.25 9.125H16.5C17.0636 9.125 17.6041 9.34888 18.0026 9.7474C18.4011 10.1459 18.625 10.6864 18.625 11.25V15.5C18.625 16.0636 18.4011 16.6041 18.0026 17.0026C17.6041 17.4011 17.0636 17.625 16.5 17.625H12.25C11.6864 17.625 11.1459 17.4011 10.7474 17.0026C10.3489 16.6041 10.125 16.0636 10.125 15.5V11.25ZM20.75 11.25C20.75 10.6864 20.9739 10.1459 21.3724 9.7474C21.7709 9.34888 22.3114 9.125 22.875 9.125H27.125C27.6886 9.125 28.2291 9.34888 28.6276 9.7474C29.0261 10.1459 29.25 10.6864 29.25 11.25V15.5C29.25 16.0636 29.0261 16.6041 28.6276 17.0026C28.2291 17.4011 27.6886 17.625 27.125 17.625H22.875C22.3114 17.625 21.7709 17.4011 21.3724 17.0026C20.9739 16.6041 20.75 16.0636 20.75 15.5V11.25ZM31.375 11.25C31.375 10.6864 31.5989 10.1459 31.9974 9.7474C32.3959 9.34888 32.9364 9.125 33.5 9.125H37.75C38.3136 9.125 38.8541 9.34888 39.2526 9.7474C39.6511 10.1459 39.875 10.6864 39.875 11.25V15.5C39.875 16.0636 39.6511 16.6041 39.2526 17.0026C38.8541 17.4011 38.3136 17.625 37.75 17.625H33.5C32.9364 17.625 32.3959 17.4011 31.9974 17.0026C31.5989 16.6041 31.375 16.0636 31.375 15.5V11.25ZM10.125 21.875C10.125 21.3114 10.3489 20.7709 10.7474 20.3724C11.1459 19.9739 11.6864 19.75 12.25 19.75H16.5C17.0636 19.75 17.6041 19.9739 18.0026 20.3724C18.4011 20.7709 18.625 21.3114 18.625 21.875V26.125C18.625 26.6886 18.4011 27.2291 18.0026 27.6276C17.6041 28.0261 17.0636 28.25 16.5 28.25H12.25C11.6864 28.25 11.1459 28.0261 10.7474 27.6276C10.3489 27.2291 10.125 26.6886 10.125 26.125V21.875ZM20.75 21.875C20.75 21.3114 20.9739 20.7709 21.3724 20.3724C21.7709 19.9739 22.3114 19.75 22.875 19.75H27.125C27.6886 19.75 28.2291 19.9739 28.6276 20.3724C29.0261 20.7709 29.25 21.3114 29.25 21.875V26.125C29.25 26.6886 29.0261 27.2291 28.6276 27.6276C28.2291 28.0261 27.6886 28.25 27.125 28.25H22.875C22.3114 28.25 21.7709 28.0261 21.3724 27.6276C20.9739 27.2291 20.75 26.6886 20.75 26.125V21.875ZM31.375 21.875C31.375 21.3114 31.5989 20.7709 31.9974 20.3724C32.3959 19.9739 32.9364 19.75 33.5 19.75H37.75C38.3136 19.75 38.8541 19.9739 39.2526 20.3724C39.6511 20.7709 39.875 21.3114 39.875 21.875V26.125C39.875 26.6886 39.6511 27.2291 39.2526 27.6276C38.8541 28.0261 38.3136 28.25 37.75 28.25H33.5C32.9364 28.25 32.3959 28.0261 31.9974 27.6276C31.5989 27.2291 31.375 26.6886 31.375 26.125V21.875ZM10.125 32.5C10.125 31.9364 10.3489 31.3959 10.7474 30.9974C11.1459 30.5989 11.6864 30.375 12.25 30.375H16.5C17.0636 30.375 17.6041 30.5989 18.0026 30.9974C18.4011 31.3959 18.625 31.9364 18.625 32.5V36.75C18.625 37.3136 18.4011 37.8541 18.0026 38.2526C17.6041 38.6511 17.0636 38.875 16.5 38.875H12.25C11.6864 38.875 11.1459 38.6511 10.7474 38.2526C10.3489 37.8541 10.125 37.3136 10.125 36.75V32.5ZM20.75 32.5C20.75 31.9364 20.9739 31.3959 21.3724 30.9974C21.7709 30.5989 22.3114 30.375 22.875 30.375H27.125C27.6886 30.375 28.2291 30.5989 28.6276 30.9974C29.0261 31.3959 29.25 31.9364 29.25 32.5V36.75C29.25 37.3136 29.0261 37.8541 28.6276 38.2526C28.2291 38.6511 27.6886 38.875 27.125 38.875H22.875C22.3114 38.875 21.7709 38.6511 21.3724 38.2526C20.9739 37.8541 20.75 37.3136 20.75 36.75V32.5ZM31.375 32.5C31.375 31.9364 31.5989 31.3959 31.9974 30.9974C32.3959 30.5989 32.9364 30.375 33.5 30.375H37.75C38.3136 30.375 38.8541 30.5989 39.2526 30.9974C39.6511 31.3959 39.875 31.9364 39.875 32.5V36.75C39.875 37.3136 39.6511 37.8541 39.2526 38.2526C38.8541 38.6511 38.3136 38.875 37.75 38.875H33.5C32.9364 38.875 32.3959 38.6511 31.9974 38.2526C31.5989 37.8541 31.375 37.3136 31.375 36.75V32.5Z" fill="white"/>
<defs>
<filter id="filter0_d_1_26" x="-1" y="0" width="56" height="57" filterUnits="userSpaceOnUse" color-interpolation-filters="sRGB">
<feFlood flood-opacity="0" result="BackgroundImageFix"/>
<feColorMatrix in="SourceAlpha" type="matrix" values="0 0 0 0 0 0 0 0 0 0 0 0 0 0 0 0 0 0 127 0" result="hardAlpha"/>
<feOffset dx="2" dy="5"/>
<feGaussianBlur stdDeviation="2"/>
<feComposite in2="hardAlpha" operator="out"/>
<feColorMatrix type="matrix" values="0 0 0 0 0 0 0 0 0 0 0 0 0 0 0 0 0 0 0.5 0"/>
<feBlend mode="normal" in2="BackgroundImageFix" result="effect1_dropShadow_1_26"/>
<feBlend mode="normal" in="SourceGraphic" in2="effect1_dropShadow_1_26" result="shape"/>
</filter>
</defs>
</svg>
